<?xml version="1.0" standalone="no"?>
<!DOCTYPE svg PUBLIC "-//W3C//DTD SVG 20010904//EN"
 "http://www.w3.org/TR/2001/REC-SVG-20010904/DTD/svg10.dtd">
<svg version="1.0" xmlns="http://www.w3.org/2000/svg"
 width="675.000000pt" height="675.000000pt" viewBox="0 0 675.000000 675.000000"
 preserveAspectRatio="xMidYMid meet">
<metadata>
Created by potrace 1.11, written by Peter Selinger 2001-2013
</metadata>
<g transform="translate(0.000000,675.000000) scale(0.100000,-0.100000)"
fill="#000000" stroke="none">
<path d="M1320 6740 c-25 -4 -63 -11 -84 -14 -96 -16 -239 -59 -340 -103 -468
-206 -802 -644 -880 -1153 -12 -81 -14 -398 -12 -2120 1 -1114 5 -2043 9
-2065 39 -216 93 -365 201 -556 92 -164 298 -378 466 -485 144 -91 328 -170
479 -205 162 -38 163 -38 2246 -35 1111 2 2031 5 2045 8 73 14 116 22 120 23
3 1 21 5 40 9 55 12 214 67 225 77 5 5 14 9 20 9 22 0 199 101 280 160 145
105 322 299 404 443 103 181 153 320 198 555 11 56 13 4078 3 4142 -5 30 -12
71 -15 90 -3 19 -7 42 -10 50 -2 8 -6 27 -9 41 -2 15 -19 68 -36 119 -148 430
-473 766 -896 925 -73 27 -191 60 -254 70 -25 4 -54 10 -65 13 -30 10 -4082
11 -4135 2z"/>
</g>
</svg>
