<?xml version="1.0" encoding="UTF-8"?>
<svg width="1233px" height="1198px" viewBox="0 0 1233 1198" version="1.1" xmlns="http://www.w3.org/2000/svg" xmlns:xlink="http://www.w3.org/1999/xlink">
    <title>new_logo_shadow</title>
    <defs>
        <rect id="path-1" x="0" y="0" width="1024" height="1024" rx="75"></rect>
        <filter x="-8.1%" y="-8.1%" width="116.1%" height="116.1%" filterUnits="objectBoundingBox" id="filter-2">
            <feMorphology radius="2.5" operator="dilate" in="SourceAlpha" result="shadowSpreadOuter1"></feMorphology>
            <feOffset dx="0" dy="0" in="shadowSpreadOuter1" result="shadowOffsetOuter1"></feOffset>
            <feGaussianBlur stdDeviation="25" in="shadowOffsetOuter1" result="shadowBlurOuter1"></feGaussianBlur>
            <feColorMatrix values="0 0 0 0 0   0 0 0 0 0   0 0 0 0 0  0 0 0 0.192438299 0" type="matrix" in="shadowBlurOuter1"></feColorMatrix>
        </filter>
    </defs>
    <g id="new_logo_shadow" stroke="none" stroke-width="1" fill="none" fill-rule="evenodd">
        <g id="Group" transform="translate(105.000000, 87.000000)">
            <g id="Rectangle">
                <use fill="black" fill-opacity="1" filter="url(#filter-2)" xlink:href="#path-1"></use>
                <use fill="#FFFFFF" fill-rule="evenodd" xlink:href="#path-1"></use>
            </g>
            <rect id="Rectangle" fill="#0C4979" x="80" y="110" width="272" height="272" rx="50"></rect>
            <text id="3x" font-family="Nunito-Bold, Nunito" font-size="150" font-weight="bold" fill="#FFFFFF">
                <tspan x="131" y="295">3x</tspan>
            </text>
            <line x1="192.5" y1="471.5" x2="807.5" y2="471.5" id="Line" stroke="#BCBCBC" stroke-width="25" stroke-linecap="round"></line>
            <line x1="192.5" y1="587.5" x2="600.5" y2="587.5" id="Line" stroke="#BCBCBC" stroke-width="25" stroke-linecap="round"></line>
            <path d="M767.138672,926.333984 C786.669922,926.333984 805.029297,922.598633 822.216797,915.12793 C839.404297,907.657227 854.541016,897.378906 867.626953,884.292969 C880.712891,871.207031 890.966797,856.094727 898.388672,838.956055 C905.810547,821.817383 909.521484,803.482422 909.521484,783.951172 C909.521484,764.419922 905.810547,746.084961 898.388672,728.946289 C890.966797,711.807617 880.688477,696.670898 867.553711,683.536133 C854.418945,670.401367 839.257812,660.123047 822.070312,652.701172 C804.882812,645.279297 786.523438,641.568359 766.992188,641.568359 C747.65625,641.568359 729.394531,645.279297 712.207031,652.701172 C695.019531,660.123047 679.858398,670.401367 666.723633,683.536133 C653.588867,696.670898 643.310547,711.807617 635.888672,728.946289 C628.466797,746.084961 624.755859,764.419922 624.755859,783.951172 C624.755859,803.482422 628.491211,821.817383 635.961914,838.956055 C643.432617,856.094727 653.710938,871.207031 666.796875,884.292969 C679.882812,897.378906 695.019531,907.657227 712.207031,915.12793 C729.394531,922.598633 747.705078,926.333984 767.138672,926.333984 Z M751.611328,852.066406 C749.072266,852.066406 746.75293,851.504883 744.65332,850.381836 C742.553711,849.258789 740.576172,847.476562 738.720703,845.035156 L704.443359,803.140625 C703.173828,801.675781 702.246094,800.137695 701.660156,798.526367 C701.074219,796.915039 700.78125,795.279297 700.78125,793.619141 C700.78125,790.298828 701.953125,787.442383 704.296875,785.049805 C706.640625,782.657227 709.472656,781.460938 712.792969,781.460938 C714.84375,781.460938 716.748047,781.875977 718.505859,782.706055 C720.263672,783.536133 721.972656,785.074219 723.632812,787.320312 L751.025391,822.330078 L809.179688,729.166016 C812.011719,724.673828 815.576172,722.427734 819.873047,722.427734 C823.095703,722.427734 826.000977,723.453125 828.588867,725.503906 C831.176758,727.554688 832.470703,730.289062 832.470703,733.707031 C832.470703,735.367188 832.104492,737.00293 831.37207,738.614258 C830.639648,740.225586 829.785156,741.763672 828.808594,743.228516 L763.916016,845.035156 C762.353516,847.378906 760.546875,849.136719 758.496094,850.308594 C756.445312,851.480469 754.150391,852.066406 751.611328,852.066406 Z" id="ô€£" fill="#4ABF85" fill-rule="nonzero"></path>
        </g>
    </g>
</svg>