<svg height="131" viewBox="0 0 535 131" width="535" xmlns="http://www.w3.org/2000/svg"><g fill="#303030" transform="translate(18 10)"><path d="m62.4127216 35.3982028c-12.9621437-3.9692838-15.0360866-6.5720928-15.0360866-10.4112361 0-3.3185815 2.981293-6.3118119 8.9438791-6.3118119 7.6476647 0 10.4345256 4.3597051 13.2861972 10.3461659l16.0730581-9.500253c-6.0922075-12.29827264-15.6841938-19.5210677-29.3592553-19.5210677-7.129179 0-14.0639259 2.2774579-19.2487833 6.5720928h-28.1278517v4.4247753h23.915155c-1.4906465 2.017177-2.6572394 4.2946349-3.3701573 6.7022333h-29.4888768v4.4247753h28.516716c-.1296215 1.1061939-.1944322 2.277458-.1944322 3.3836518s.0648107 2.1473174.1944322 3.2535113h-19.5728369v4.4247753h20.4801869c3.2405359 10.4112361 13.2861973 14.9661519 23.3966693 17.7641716 12.5084686 3.448722 17.3044617 5.465899 17.3044617 10.6715171 0 3.2535113-2.2683751 6.8323737-11.3418756 6.8323737-9.3975542 0-13.6750616-5.0104074-16.6563546-11.9729216l-16.4619224 9.5653232c4.6663717 12.2982727 14.9712759 21.0827532 32.5349805 21.0827532 18.0821903 0 30.9795233-9.5653232 30.9795233-25.7027392 0-17.7641716-14.1935473-22.188947-26.7668266-26.0280903z"/><path d="m136.366342 58.9114662c0 8.6541553-4.601493 12.5582856-11.276898 12.5582856-5.832878 0-10.56399-3.5137172-10.56399-11.0617024v-34.7467591h-18.211542v37.4145815c0 16.4624158 10.434371 25.2467088 22.683415 25.2467088 8.03641 0 14.063717-2.9280976 17.369015-7.4178474v5.7260577h18.211541v-60.9695006h-18.211541z"/><path d="m199.828247 24.4677419c-8.109913 0-14.078809 2.7850952-18.101325 7.3837406v-5.6997296h-18.231084v84.8482471h18.231084v-29.9235803c4.022516 4.5986455 9.991412 7.3837406 18.101325 7.3837406 15.895429 0 29.065927-13.9254756 29.065927-31.9962092 0-18.0707335-13.170498-31.9962092-29.065927-31.9962092zm-2.076138 46.8284601c-8.36943 0-14.468084-5.6997296-14.468084-14.7674812s6.033775-14.8322508 14.468084-14.8322508 14.403205 5.6997295 14.403205 14.8322508c0 9.1325212-6.033775 14.7674812-14.403205 14.7674812z"/><path d="m268.878018 24.4677419c-19.171617 0-32.25495 13.8955368-32.25495 31.9274194s12.824257 31.9274193 33.615099 31.9274193c11.528877 0 20.466996-4.2656066 26.425742-12.4736678l-14.57302-8.3373221c-2.461221 2.6498465-6.671204 4.5887587-11.658416 4.5887587-6.671204 0-12.241336-2.1974338-14.573019-8.4665829h43.071369c.518152-2.3913249.712459-4.8472803.712459-7.2386052 0-18.2257738-13.083333-31.9274194-30.765264-31.9274194zm-13.342409 25.6582702c1.683993-6.2045187 6.282591-9.5652997 13.212871-9.5652997 5.440594 0 10.945957 2.5205858 12.889026 9.5652997z"/><path d="m327.356128 34.119476v-8.2178066h-18.200361v60.6305887h18.200361v-27.4358267c0-12.0355277 11.334745-17.4709273 18.394672-15.0120561l3.238498-17.5356345c-6.153147-1.5529713-17.358351-2.1353355-21.63317 7.5707352z"/><path d="m359.096314 87.7258065h19.907294v-31.9365152h32.422303v-19.1748651h-32.422303v-16.8427869h33.005904v-19.17486511h-52.913198z"/><path d="m425.68371 25.0645161h18.43044v62.6612904h-18.43044z"/><ellipse cx="434.601665" cy="10.145161" rx="9.512485" ry="9.548387"/><path d="m488.398881 70.6477977c-2.78686-.6490168-4.277507-2.0768539-4.277507-5.1272331v-22.1963765h9.91604v-17.9777668h-9.91604v-17.58835678l-18.730297 5.64644658v11.8770085h-9.980851v18.0426685h9.980851v22.1314748c0 8.5021208 1.685078 14.6028792 6.221828 18.367177 4.795994 3.9590028 15.813816 5.3219382 28.387095 4.0239045v-17.0042416c-3.564589.194705-9.462365.2596067-11.601119-.1947051z"/></g></svg>